Coordinates
version=1
nRows=16
nColumns=36
inDegrees=yes

Units are S.I. units (second, meters, Newtons, ...)
If the header above contains a line with 'inDegrees', this indicates whether rotational values are in degrees (yes) or radians (no).

endheader
time	pelvis_tilt	pelvis_list	pelvis_rotation	pelvis_tx	pelvis_ty	pelvis_tz	hip_flexion_r	hip_adduction_r	hip_rotation_r	knee_angle_r	knee_angle_r_beta	ankle_angle_r	subtalar_angle_r	mtp_angle_r	hip_flexion_l	hip_adduction_l	hip_rotation_l	knee_angle_l	knee_angle_l_beta	ankle_angle_l	subtalar_angle_l	mtp_angle_l	lumbar_extension	lumbar_bending	lumbar_rotation	arm_flex_r	arm_add_r	arm_rot_r	elbow_flex_r	pro_sup_r	arm_flex_l	arm_add_l	arm_rot_l	elbow_flex_l	pro_sup_l
      4.06666670	     -9.47548541	     -0.05200642	      1.88001273	      0.57299019	      1.09751795	      0.04417907	     32.44023184	     -4.70278742	     -3.80894193	     12.48401487	      0.21788716	    -35.36454446	      8.73457495	     -7.49999987	     31.26857973	     -6.71228153	     -5.71675664	     14.50108169	      0.25309162	    -32.21796442	    -10.45181052	     -7.49999987	    -13.52058304	      4.72609614	      2.59955751	     -4.69855266	    -49.44406228	    -19.71454855	     78.64227675	     78.85769425	      9.29447807	    -51.72051861	    -24.86817036	     89.91360711	     65.38340827
      4.08333330	     -8.64420640	      0.10130876	      2.06444320	      0.58933505	      1.07656784	      0.04364342	     31.80924456	     -4.99193392	     -4.47507852	      8.85401866	      0.15453178	    -37.24245751	      8.57391354	     -7.49999987	     31.36874839	     -6.76630953	     -7.18758975	     11.61742489	      0.20276232	    -31.72010224	     -6.90501683	     -7.49999987	    -15.30150647	      5.00244501	      2.52951535	    -11.20592940	    -49.30718175	    -24.59938807	     71.89805372	     79.13337822	      4.41052339	    -54.06733495	    -29.04338085	     87.41906353	     66.37448025
      4.10000000	     -8.10265105	      0.21998233	      2.43390787	      0.62139195	      1.04618502	      0.04105926	     31.39253779	     -5.34863922	     -5.53938837	      5.82121156	      0.10159931	    -37.96133074	      8.22550384	     -7.49999987	     31.85188596	     -6.82899919	     -8.08032241	     10.17193295	      0.17753372	    -31.63215433	     -5.42916952	     -7.49999987	    -17.69297525	      5.61798623	      1.92974397	    -19.35690066	    -48.48819384	    -32.72526923	     68.10001601	     82.41802808	    -11.99925787	    -53.65065221	    -44.57524044	     84.98139956	     76.39547361
      4.11666670	     -7.71958274	      0.61347567	      2.99064647	      0.64164117	      1.01003455	      0.03933018	     31.86855478	     -6.10555661	     -6.61579641	      4.14311894	      0.07231107	    -37.25978820	      8.11410681	     -7.49999987	     33.41534949	     -6.60321324	     -8.77961282	     10.72198307	      0.18713391	    -30.97153414	     -4.58532122	     -7.49999987	    -20.11901073	      4.66909572	     -3.83017166	    -17.37430511	    -49.09437195	    -28.76337252	     60.20277401	     82.36649357	    -39.78900917	    -46.69493343	    -68.99160166	     86.15896464	     72.72806140
      4.13333330	     -7.90891674	      0.93545345	      3.43402304	      0.66415570	      0.97067421	      0.03778417	     33.55335666	     -6.86514040	     -7.12897775	      4.29181492	      0.07490630	    -36.78934068	      6.97492170	     -7.49999987	     36.15124835	     -6.55825051	     -8.68367190	     13.59266462	      0.23723675	    -29.64839356	     -4.84494329	     -7.49999987	    -22.06794428	      3.76196710	     -4.44757562	    -26.73954403	    -46.45770292	    -35.89458215	     57.71153987	     80.60771609	    -51.52435337	    -40.02144412	    -76.90935266	     81.36806696	     72.01100682
      4.15000000	     -8.18433614	      0.84801982	      3.32644702	      0.68976935	      0.93965911	      0.03179846	     35.65146945	     -7.22017941	     -6.90563711	      6.48911520	      0.11325643	    -35.40751234	      5.99441622	     -7.49999987	     38.98030588	     -6.96069504	     -8.38831435	     18.05047814	      0.31504028	    -28.25243810	     -5.09095178	     -7.49999987	    -24.31495040	      3.99956979	      0.93484463	    -43.22598282	    -37.66154376	    -49.52984951	     57.92581700	     78.65829577	    -52.95336605	    -37.33723209	    -73.78811604	     74.49135946	     72.05669330
      4.16666670	     -8.15439517	      0.31844227	      3.28015299	      0.71691768	      0.90431473	      0.02735986	     37.95176193	     -7.20553755	     -6.40449442	     11.18263309	      0.19517377	    -33.07794556	      4.20204784	     -7.49999987	     42.55895746	     -7.92839442	     -8.02484602	     24.88114132	      0.43425784	    -25.58703853	     -6.15815023	     -7.49999987	    -26.24563677	      4.38494995	      3.52543991	    -50.45622451	    -29.45515940	    -53.53425612	     55.21204686	     77.15707914	    -55.20925889	    -33.28646020	    -71.64770631	     67.05685088	     71.11804862
      4.18333330	     -9.20801310	     -0.58682444	      2.63699763	      0.73950505	      0.85783160	      0.02315142	     43.53040912	     -6.82813369	     -5.52441734	     21.25470431	      0.37096457	    -25.35277280	      0.12078387	     -7.49999987	     48.77816876	     -9.58024008	     -6.90239088	     36.08614705	      0.62982208	    -16.91332491	     -8.12106253	     -7.49999987	    -26.81542889	      4.66671987	      5.66885907	    -53.97362788	    -22.94052095	    -54.27476870	     51.84513022	     74.36981910	    -56.66917197	    -27.71138024	    -71.36415080	     61.10631334	     68.96586744
      4.20000000	    -10.09603199	     -0.83212723	      2.06338919	      0.75699456	      0.81782616	      0.02076837	     50.52782256	     -6.91621117	     -3.80505662	     35.21424759	      0.61460456	    -13.81349203	     -4.24140993	     -7.49999987	     54.16905432	    -10.76985070	     -6.39554324	     47.12879914	      0.82255272	     -5.64400251	     -9.52983329	     -7.49999987	    -27.85990318	      4.74247794	      8.77193506	    -56.92089236	    -14.49563495	    -57.58218946	     50.65834827	     76.42603595	    -55.26893078	    -26.02865686	    -68.52876290	     54.08165883	     68.90339298
      4.21666670	    -11.37434804	     -0.91290543	      2.10547370	      0.77829863	      0.77499608	      0.01947627	     58.37935798	     -7.36958736	     -2.36858677	     50.17674355	      0.87574938	     -1.46069917	     -7.43846159	     -7.49999987	     60.42852760	    -11.30520963	     -5.07119547	     58.84618008	      1.02705959	      5.96028123	    -10.91217032	     -7.49999987	    -28.52572465	      4.49564240	     11.94732662	    -58.03177526	     -6.89474424	    -59.52821186	     50.88442025	     78.63446594	    -52.63298882	    -24.92397353	    -64.27375309	     47.36629603	     68.50067160
      4.23333330	    -12.74251246	     -0.90222668	      2.57752101	      0.79354228	      0.72755396	      0.01912352	     66.34932434	     -8.15824623	     -1.33466853	     63.98162712	      1.11669005	     10.31844123	     -7.97145485	     -7.49999987	     67.29480351	    -11.60160139	     -3.69409829	     70.39881645	      1.22869114	     16.22320792	    -10.78599077	     -7.49999987	    -29.97739032	      4.25865545	     14.09902368	    -57.76233091	     -0.17376731	    -62.80160646	     58.45696408	     80.43275941	    -48.85151629	    -24.55672644	    -59.80017410	     42.52559326	     68.38569940
      4.25000000	    -14.81200965	     -0.85460477	      3.13212588	      0.80705412	      0.69527038	      0.02324162	     73.27554523	     -8.67859184	     -0.60034509	     74.40170520	      1.29855472	     20.09558580	     -6.88643394	     -7.49999987	     73.69328305	    -11.91577541	     -2.55678753	     79.10258557	      1.38060057	     22.94879438	    -10.10772199	     -7.49999987	    -30.99583031	      4.23673623	     15.79997950	    -53.72215992	      5.79506488	    -70.02265075	     73.77341086	     94.01184612	    -41.92225590	    -26.70560764	    -53.03285130	     37.68413149	     70.19405751
      4.26666670	    -17.08640004	     -0.62940490	      3.29812432	      0.82380533	      0.67343752	      0.02260168	     78.74962344	     -9.17203946	     -0.08108917	     81.50813218	      1.42258527	     26.32803695	     -4.95831651	     -7.49999987	     78.61342861	    -12.31813573	     -2.02707053	     85.12930040	      1.48578658	     27.02615098	     -9.01802413	     -7.49999987	    -31.78197529	      4.26692162	     11.42535305	    -41.91840858	      4.50027687	    -71.52914676	     94.53560101	     92.82634337	    -38.35180237	    -23.99928407	    -50.85291131	     39.07845860	     70.74681401
      4.28333330	    -18.22837884	     -0.17964486	      3.80299154	      0.83832238	      0.64817462	      0.02464474	     82.25308076	     -9.81732174	      0.69477780	     86.86363365	      1.51605641	     30.65758562	     -3.44126894	     -7.49999987	     81.94691178	    -12.64029365	     -1.76115227	     90.00504499	      1.57088438	     28.99053838	     -8.40559990	     -7.49999987	    -31.12876344	      3.46261100	      7.79616711	    -28.74209398	      0.42293169	    -64.96453058	    106.27077508	     97.74992084	    -30.72547289	    -18.61436826	    -56.54869199	     44.50355794	     77.46576897
      4.30000000	    -18.46295444	      0.03858887	      4.16810205	      0.83577073	      0.63527510	      0.02583444	     84.42677055	    -10.12565550	      1.23469116	     90.55714369	      1.58052032	     33.02324923	     -3.22639012	     -7.49999987	     84.25439145	    -12.84275620	     -1.22280056	     93.55421480	      1.63282908	     29.62239336	     -7.76639639	     -7.49999987	    -31.47007229	      3.87166120	      4.74219058	    -18.58323531	     -4.74884237	    -46.31354744	     97.40087102	     98.61621153	    -22.93367133	    -17.58086717	    -51.07576816	     43.30549241	     78.63350944
      4.31666670	    -17.67287318	      0.31075835	      4.80496734	      0.85923111	      0.61873180	      0.02387400	     85.09849032	    -10.80002881	      2.02932478	     94.74051437	      1.65353391	     35.55113301	     -2.98355916	     -7.49999987	     84.63110228	    -12.99886052	     -0.77516167	     96.89604415	      1.69115500	     30.82071675	     -6.98234727	     -7.49999987	    -32.76638035	      3.67655987	      2.52876817	    -14.24964906	     -6.53651570	    -34.65432457	     64.84852230	     95.34788603	    -17.33558982	    -17.18393429	    -44.98232163	     46.34918510	     77.47419631
